<?xml version="1.0" standalone="no"?>
<!DOCTYPE svg PUBLIC "-//W3C//DTD SVG 20010904//EN"
 "http://www.w3.org/TR/2001/REC-SVG-20010904/DTD/svg10.dtd">
<svg version="1.0" xmlns="http://www.w3.org/2000/svg"
 width="1000.000000pt" height="1000.000000pt" viewBox="0 0 1000.000000 1000.000000"
 preserveAspectRatio="xMidYMid meet">
<metadata>
Created by potrace 1.14, written by Peter Selinger 2001-2017
</metadata>
<g transform="translate(0.000000,1000.000000) scale(0.100000,-0.100000)"
fill="#000000" stroke="none">
<path d="M0 5000 l0 -5000 5000 0 5000 0 0 5000 0 5000 -5000 0 -5000 0 0
-5000z m6401 2114 c757 -437 1384 -801 1394 -808 21 -15 51 5 -336 -219 l-216
-124 -1114 643 c-613 354 -1121 644 -1129 644 -8 0 -516 -290 -1129 -644
l-1114 -643 -216 124 c-347 200 -353 205 -344 213 4 5 636 372 1403 815 840
485 1401 803 1410 799 8 -3 634 -363 1391 -800z m-565 -968 c456 -263 835
-484 842 -490 10 -10 -44 -45 -267 -174 -155 -89 -285 -162 -290 -162 -5 0
-256 143 -557 317 -302 174 -556 317 -564 317 -15 0 -502 -276 -527 -298 -10
-9 255 -166 1102 -656 883 -509 1113 -646 1103 -656 -7 -6 -388 -228 -846
-492 l-832 -480 -833 480 c-457 264 -838 486 -845 492 -10 10 45 46 267 174
155 89 285 162 290 162 5 0 249 -139 542 -308 294 -170 544 -314 557 -321 21
-11 46 1 280 135 141 81 263 152 269 158 10 9 -252 164 -1102 656 -727 419
-1112 647 -1106 653 14 14 1675 975 1682 973 3 0 379 -216 835 -480z m-1966
-2752 c608 -350 1114 -639 1125 -641 13 -2 436 237 1134 641 l1114 643 216
-124 c387 -224 357 -204 336 -219 -24 -18 -2766 -1601 -2785 -1608 -17 -7
-2812 1603 -2811 1619 0 10 552 334 561 330 3 -1 502 -290 1110 -641z"/>
</g>
</svg>
